<svg width="268" height="42" viewBox="0 0 268 42" fill="none" xmlns="http://www.w3.org/2000/svg">
<path d="M13.432 33.352C10.9387 33.352 8.69467 32.8387 6.7 31.812C4.73467 30.756 3.19467 29.304 2.08 27.456C0.965333 25.608 0.408 23.5107 0.408 21.164C0.408 18.8173 0.965333 16.72 2.08 14.872C3.19467 13.024 4.73467 11.5867 6.7 10.56C8.69467 9.504 10.9387 8.976 13.432 8.976C15.9253 8.976 18.1547 9.504 20.12 10.56C22.0853 11.5867 23.6253 13.024 24.74 14.872C25.8547 16.72 26.412 18.8173 26.412 21.164C26.412 23.5107 25.8547 25.608 24.74 27.456C23.6253 29.304 22.0853 30.756 20.12 31.812C18.1547 32.8387 15.9253 33.352 13.432 33.352ZM13.432 27.72C15.192 27.72 16.6293 27.1333 17.744 25.96C18.888 24.7573 19.46 23.1587 19.46 21.164C19.46 19.1693 18.888 17.5853 17.744 16.412C16.6293 15.2093 15.192 14.608 13.432 14.608C11.672 14.608 10.22 15.2093 9.076 16.412C7.932 17.5853 7.36 19.1693 7.36 21.164C7.36 23.1587 7.932 24.7573 9.076 25.96C10.22 27.1333 11.672 27.72 13.432 27.72ZM57.356 8.976C60.3187 8.976 62.6654 9.856 64.396 11.616C66.156 13.3467 67.036 15.9573 67.036 19.448V33H60.172V20.504C60.172 18.6267 59.776 17.2333 58.984 16.324C58.2214 15.3853 57.1214 14.916 55.684 14.916C54.0707 14.916 52.7947 15.444 51.856 16.5C50.9174 17.5267 50.448 19.0667 50.448 21.12V33H43.584V20.504C43.584 16.7787 42.088 14.916 39.096 14.916C37.512 14.916 36.2507 15.444 35.312 16.5C34.3734 17.5267 33.904 19.0667 33.904 21.12V33H27.04V9.328H33.596V12.056C34.476 11.0587 35.5467 10.296 36.808 9.768C38.0987 9.24 39.5067 8.976 41.032 8.976C42.704 8.976 44.2147 9.31333 45.564 9.988C46.9134 10.6333 47.9987 11.5867 48.82 12.848C49.788 11.616 51.0054 10.6627 52.472 9.988C53.968 9.31333 55.596 8.976 57.356 8.976ZM93.9063 9.328V29.04C93.9063 33.3813 92.777 36.608 90.5183 38.72C88.2596 40.832 84.9596 41.888 80.6183 41.888C78.3303 41.888 76.1596 41.6093 74.1063 41.052C72.053 40.4947 70.3516 39.688 69.0023 38.632L71.7303 33.704C72.7276 34.5253 73.9889 35.1707 75.5143 35.64C77.0396 36.1387 78.565 36.388 80.0903 36.388C82.4663 36.388 84.2116 35.8453 85.3263 34.76C86.4703 33.704 87.0423 32.0907 87.0423 29.92V28.908C85.253 30.8733 82.7596 31.856 79.5623 31.856C77.3916 31.856 75.397 31.3867 73.5783 30.448C71.7889 29.48 70.3663 28.1307 69.3103 26.4C68.2543 24.6693 67.7263 22.6747 67.7263 20.416C67.7263 18.1573 68.2543 16.1627 69.3103 14.432C70.3663 12.7013 71.7889 11.3667 73.5783 10.428C75.397 9.46 77.3916 8.976 79.5623 8.976C82.9943 8.976 85.605 10.1053 87.3943 12.364V9.328H93.9063ZM80.9263 26.224C82.745 26.224 84.2263 25.696 85.3703 24.64C86.5436 23.5547 87.1303 22.1467 87.1303 20.416C87.1303 18.6853 86.5436 17.292 85.3703 16.236C84.2263 15.1507 82.745 14.608 80.9263 14.608C79.1076 14.608 77.6116 15.1507 76.4383 16.236C75.265 17.292 74.6783 18.6853 74.6783 20.416C74.6783 22.1467 75.265 23.5547 76.4383 24.64C77.6116 25.696 79.1076 26.224 80.9263 26.224ZM95.4549 2.2H103.639L102.275 22.308H96.8189L95.4549 2.2ZM99.5469 33.352C98.3442 33.352 97.3322 32.9707 96.5109 32.208C95.7189 31.416 95.3229 30.4627 95.3229 29.348C95.3229 28.2333 95.7189 27.3093 96.5109 26.576C97.3029 25.8133 98.3149 25.432 99.5469 25.432C100.779 25.432 101.791 25.8133 102.583 26.576C103.375 27.3093 103.771 28.2333 103.771 29.348C103.771 30.4627 103.36 31.416 102.539 32.208C101.747 32.9707 100.75 33.352 99.5469 33.352Z" fill="#F15D22"/>
<path d="M137.443 9.328V33H130.931V30.184C130.021 31.2107 128.936 32.0027 127.675 32.56C126.413 33.088 125.049 33.352 123.583 33.352C120.473 33.352 118.009 32.4573 116.191 30.668C114.372 28.8787 113.463 26.224 113.463 22.704V9.328H120.327V21.692C120.327 25.5053 121.925 27.412 125.123 27.412C126.765 27.412 128.085 26.884 129.083 25.828C130.08 24.7427 130.579 23.144 130.579 21.032V9.328H137.443ZM153.834 8.976C156.034 8.976 158.028 9.48933 159.818 10.516C161.636 11.5133 163.059 12.936 164.086 14.784C165.112 16.6027 165.626 18.7293 165.626 21.164C165.626 23.5987 165.112 25.74 164.086 27.588C163.059 29.4067 161.636 30.8293 159.818 31.856C158.028 32.8533 156.034 33.352 153.834 33.352C150.578 33.352 148.099 32.3253 146.398 30.272V33H139.842V0.351998H146.706V11.836C148.436 9.92933 150.812 8.976 153.834 8.976ZM152.646 27.72C154.406 27.72 155.843 27.1333 156.958 25.96C158.102 24.7573 158.674 23.1587 158.674 21.164C158.674 19.1693 158.102 17.5853 156.958 16.412C155.843 15.2093 154.406 14.608 152.646 14.608C150.886 14.608 149.434 15.2093 148.29 16.412C147.175 17.5853 146.618 19.1693 146.618 21.164C146.618 23.1587 147.175 24.7573 148.29 25.96C149.434 27.1333 150.886 27.72 152.646 27.72ZM190.108 9.328V33H183.596V30.184C182.687 31.2107 181.602 32.0027 180.34 32.56C179.079 33.088 177.715 33.352 176.248 33.352C173.139 33.352 170.675 32.4573 168.856 30.668C167.038 28.8787 166.128 26.224 166.128 22.704V9.328H172.992V21.692C172.992 25.5053 174.591 27.412 177.788 27.412C179.431 27.412 180.751 26.884 181.748 25.828C182.746 24.7427 183.245 23.144 183.245 21.032V9.328H190.108ZM206.896 8.976C209.829 8.976 212.19 9.856 213.98 11.616C215.798 13.376 216.708 15.9867 216.708 19.448V33H209.844V20.504C209.844 18.6267 209.433 17.2333 208.612 16.324C207.79 15.3853 206.602 14.916 205.048 14.916C203.317 14.916 201.938 15.4587 200.912 16.544C199.885 17.6 199.372 19.184 199.372 21.296V33H192.508V9.328H199.064V12.1C199.973 11.1027 201.102 10.34 202.452 9.812C203.801 9.25467 205.282 8.976 206.896 8.976ZM234.237 31.856C233.563 32.3547 232.727 32.736 231.729 33C230.761 33.2347 229.735 33.352 228.649 33.352C225.833 33.352 223.648 32.6333 222.093 31.196C220.568 29.7587 219.805 27.6467 219.805 24.86V15.136H216.153V9.856H219.805V4.092H226.669V9.856H232.565V15.136H226.669V24.772C226.669 25.7693 226.919 26.5467 227.417 27.104C227.945 27.632 228.679 27.896 229.617 27.896C230.703 27.896 231.627 27.6027 232.389 27.016L234.237 31.856ZM257.978 9.328V33H251.466V30.184C250.557 31.2107 249.472 32.0027 248.21 32.56C246.949 33.088 245.585 33.352 244.118 33.352C241.009 33.352 238.545 32.4573 236.726 30.668C234.908 28.8787 233.998 26.224 233.998 22.704V9.328H240.862V21.692C240.862 25.5053 242.461 27.412 245.658 27.412C247.301 27.412 248.621 26.884 249.618 25.828C250.616 24.7427 251.114 23.144 251.114 21.032V9.328H257.978ZM259.498 2.2H267.682L266.318 22.308H260.862L259.498 2.2ZM263.59 33.352C262.387 33.352 261.375 32.9707 260.554 32.208C259.762 31.416 259.366 30.4627 259.366 29.348C259.366 28.2333 259.762 27.3093 260.554 26.576C261.346 25.8133 262.358 25.432 263.59 25.432C264.822 25.432 265.834 25.8133 266.626 26.576C267.418 27.3093 267.814 28.2333 267.814 29.348C267.814 30.4627 267.403 31.416 266.582 32.208C265.79 32.9707 264.792 33.352 263.59 33.352Z" fill="white"/>
</svg>
